PathFileType	4	(X/Y/Z)	D:\Vicon data\Senior Design EMG regression\Subject 1- Steven\Session 1\steven - static trial01.trc
DataRate	CameraRate	NumFrames	NumMarkers	Units	OrigDataRate	OrigDataStartFrame	OrigNumFrames
100.0	100.0	4	60	mm	100.0	292	582	
Frame#	Time	HEAD			C7			CLAV			STUR			LSHO			LHAR2			LHME			LRAH			LRAD			LULN			LMCM			RSHO			RHAR2			RHME			RRAH			RRAD			RULN			RMCM			LASI			RASI			LPSI			RPSI			LLAT			LLFC			LKNE			LLAN			LHEE			LTOE			RLAT			RLFC			RKNE			RLAN			RHEE			RTOE			RSMT			RMAN			LSMT			LMAN			RSAT1			RSAT			RMFC			LSAT1			LSAT			LMFC			BARB			RHAR1			RHGT			RHHB			RHHF			RHLE			RMCR			RMCA			RMCI			LHHF			LHHB			LHGT			LHAR1			LHLE			LMCR			LMCI			
		X1	Y1	Z1	X2	Y2	Z2	X3	Y3	Z3	X4	Y4	Z4	X5	Y5	Z5	X6	Y6	Z6	X7	Y7	Z7	X8	Y8	Z8	X9	Y9	Z9	X10	Y10	Z10	X11	Y11	Z11	X12	Y12	Z12	X13	Y13	Z13	X14	Y14	Z14	X15	Y15	Z15	X16	Y16	Z16	X17	Y17	Z17	X18	Y18	Z18	X19	Y19	Z19	X20	Y20	Z20	X21	Y21	Z21	X22	Y22	Z22	X23	Y23	Z23	X24	Y24	Z24	X25	Y25	Z25	X26	Y26	Z26	X27	Y27	Z27	X28	Y28	Z28	X29	Y29	Z29	X30	Y30	Z30	X31	Y31	Z31	X32	Y32	Z32	X33	Y33	Z33	X34	Y34	Z34	X35	Y35	Z35	X36	Y36	Z36	X37	Y37	Z37	X38	Y38	Z38	X39	Y39	Z39	X40	Y40	Z40	X41	Y41	Z41	X42	Y42	Z42	X43	Y43	Z43	X44	Y44	Z44	X45	Y45	Z45	X46	Y46	Z46	X47	Y47	Z47	X48	Y48	Z48	X49	Y49	Z49	X50	Y50	Z50	X51	Y51	Z51	X52	Y52	Z52	X53	Y53	Z53	X54	Y54	Z54	X55	Y55	Z55	X56	Y56	Z56	X57	Y57	Z57	X58	Y58	Z58	X59	Y59	Z59	X60	Y60	Z60	
292	2.91	-73.96154	1645.9409	-326.10214	-65.679741	1452.4104	-133.36598	-66.959778	1399.5472	-271.22281	-74.229576	1253.8644	-312.75961	-181.92078	1469.6503	-181.07806	-357.76508	1449.5857	-193.48331	-477.27158	1352.7332	-179.57721	-454.59656	1426.2308	-269.82227	-477.17337	1402.3207	-410.37537	-535.7655	1429.0038	-403.29056	-510.68546	1417.7537	-499.57983	53.296955	1459.4208	-170.48335	212.94873	1440.7086	-185.46268	347.87582	1339.459	-180.70445	300.0173	1418.4951	-261.97275	292.6723	1394.1071	-407.93176	353.20169	1430.6143	-407.15436	320.36478	1429.3934	-498.53091	-193.76813	965.61536	-303.57428	71.450996	994.44019	-280.33929	-132.70668	986.72791	-155.35471	-21.976727	987.4574	-142.91963	-215.938	607.47882	-275.78232	-203.32771	501.92218	-240.08119	-161.70593	474.5202	-278.44669	-181.39912	93.406906	-174.03212	-134.60266	68.468666	-111.88483	-145.19872	49.49979	-372.23315	115.57697	683.99518	-269.9101	93.331512	502.80481	-249.16937	41.446465	477.87234	-294.85776	88.330948	104.40565	-188.77573	40.064705	63.386723	-119.31075	52.187138	47.343712	-382.97937	118.49435	40.325497	-336.81732	2.9857016	121.31041	-195.52324	-210.37935	43.689003	-323.32571	-101.62238	126.99458	-197.26401	87.54673	767.21722	-333.25381	43.631897	640.56531	-323.73721	-11.042058	490.99872	-239.84778	-207.76749	766.69556	-330.91986	-158.56598	631.97754	-322.35486	-107.63941	488.10699	-225.41508	-8.2548656	1285.219	-83.461105	267.67459	1423.2678	-145.58656	134.44669	1458.4249	-159.64828	81.435829	1442.0975	-119.35058	76.53466	1446.8281	-225.37167	358.38666	1420.8667	-174.02486	344.85172	1425.5272	-492.02917	356.69388	1419.4553	-452.11487	298.93503	1421.5747	-503.47906	-210.16783	1457.2037	-229.21361	-216.21793	1452.3762	-135.39775	-300.79727	1464.9835	-153.85909	-412.81412	1438.8512	-148.10835	-495.17871	1433.3763	-173.50702	-536.43091	1413.4144	-493.07614	-491.80585	1414.9634	-502.9469
293	2.92	-73.965416	1645.9219	-326.06494	-65.699509	1452.442	-133.31807	-66.934738	1399.5609	-271.21994	-74.272179	1253.9014	-312.58582	-181.92625	1469.6404	-181.04892	-357.7782	1449.6003	-193.47556	-477.29819	1352.723	-179.53281	-454.5744	1426.2455	-269.83212	-477.15079	1402.3365	-410.36682	-535.7605	1429.0084	-403.29391	-510.67276	1417.5386	-499.75867	53.288094	1459.4374	-170.46077	212.95329	1440.7097	-185.42924	347.77176	1339.3525	-180.66681	300.02567	1418.5333	-261.9455	292.72189	1394.1525	-407.91788	353.20517	1430.6475	-407.11185	320.36359	1429.4418	-498.49942	-193.7484	965.58997	-303.53558	71.43734	994.45404	-280.30762	-132.71492	986.7395	-155.30051	-21.991055	987.46857	-142.87831	-215.93517	607.48859	-275.75049	-203.31837	501.94067	-240.06134	-161.69518	474.51505	-278.3949	-181.39247	93.402351	-174.07349	-134.63243	68.463959	-111.87112	-145.1881	49.499485	-372.2504	115.57114	683.98004	-269.8634	92.993919	502.65698	-249.08974	41.418774	477.86179	-294.79611	88.355301	104.43095	-188.7549	40.02446	63.376537	-119.29199	52.201424	47.367393	-382.97763	118.48828	40.347874	-336.81448	3.0800338	121.36844	-195.54253	-210.34953	43.70388	-323.3222	-101.62859	127.01469	-197.26805	87.559753	767.23376	-333.21063	43.652607	640.57599	-323.73395	-11.025642	490.98245	-239.84351	-207.75471	766.71637	-330.88824	-158.63387	631.94989	-322.52164	-107.62799	488.1622	-225.39209	-8.2745237	1285.2499	-83.427223	267.67267	1423.2834	-145.54382	134.4525	1458.4446	-159.59337	81.425789	1442.0887	-119.33836	76.532478	1446.8484	-225.33919	358.3938	1420.891	-173.98851	344.81531	1425.463	-491.95773	356.70868	1419.5183	-452.08249	299.04004	1421.7745	-503.61676	-210.16809	1457.2026	-229.17934	-216.2309	1452.4031	-135.36952	-300.81458	1464.9915	-153.82985	-412.82141	1438.8726	-148.10376	-495.18863	1433.4075	-173.50177	-536.47424	1413.4907	-493.05753	-491.89737	1415.1321	-502.98666
294	2.93	-73.96357	1645.892	-326.03937	-65.679672	1452.4285	-133.32146	-66.936417	1399.5319	-271.18625	-74.304024	1253.8513	-312.50412	-181.92201	1469.635	-181.02866	-357.76813	1449.5905	-193.4509	-477.26172	1352.7166	-179.5562	-454.56723	1426.2384	-269.84302	-477.13983	1402.3081	-410.36026	-535.66168	1428.9971	-403.30054	-510.62589	1417.5159	-499.61969	53.300858	1459.3951	-170.43649	212.97833	1440.7195	-185.39789	347.858	1339.4493	-180.64684	300.01917	1418.5225	-261.93738	292.72885	1394.2002	-407.86389	353.21481	1430.6656	-407.08795	320.39145	1429.4819	-498.46411	-193.74391	965.60809	-303.5051	71.454887	994.44525	-280.26282	-132.70241	986.71808	-155.26538	-21.971968	987.44543	-142.85257	-215.93518	607.47961	-275.72174	-203.31172	501.91266	-240.06409	-161.69753	474.52228	-278.40363	-181.38507	93.410912	-174.06239	-134.62238	68.44928	-111.87084	-145.2054	49.503281	-372.25159	115.62141	683.98584	-269.84125	93.241295	502.75272	-249.136	41.382572	477.83325	-294.80142	88.356834	104.40789	-188.76321	40.002651	63.33778	-119.31927	52.197239	47.366142	-382.97348	118.48876	40.34877	-336.81265	3.1102483	121.32505	-195.57552	-210.38078	43.691502	-323.32867	-101.62638	127.00542	-197.26131	87.559792	767.23029	-333.19736	43.638138	640.55505	-323.6824	-10.9839	490.98465	-239.83578	-207.75206	766.71149	-330.87228	-158.62979	631.94891	-322.50931	-107.62307	488.10931	-225.39514	-8.2490454	1285.2198	-83.41243	267.69037	1423.2648	-145.51851	134.45087	1458.4298	-159.61	81.443024	1442.0868	-119.30244	76.559219	1446.8499	-225.30951	358.39343	1420.8733	-173.96593	344.8429	1425.5065	-491.93121	356.70682	1419.493	-452.01678	298.89194	1421.8875	-503.50659	-210.1245	1457.1998	-229.17569	-216.24344	1452.3799	-135.34415	-300.79434	1464.9781	-153.81526	-412.80927	1438.8674	-148.10329	-495.18069	1433.3987	-173.50803	-536.41675	1413.316	-493.01962	-491.86493	1415.1104	-502.95227
295	2.94	-73.93824	1645.9204	-326.15417	-65.645012	1452.4189	-133.28929	-66.916801	1399.5343	-271.19406	-74.292267	1253.8582	-312.46082	-181.90776	1469.6417	-181.02501	-357.75629	1449.5951	-193.44183	-477.26877	1352.7583	-179.52858	-454.52985	1426.2874	-269.84259	-477.11902	1402.3076	-410.35397	-535.70526	1429.0052	-403.31189	-510.64502	1417.6718	-499.59512	53.318115	1459.3958	-170.41527	212.9689	1440.707	-185.36884	347.7778	1339.3093	-180.59648	300.03854	1418.5237	-261.88559	292.7666	1394.2402	-407.88425	353.23447	1430.6801	-407.0405	320.41434	1429.5104	-498.45471	-193.74294	965.63513	-303.4808	71.47776	994.44263	-280.20276	-132.66591	986.711	-155.22946	-21.947891	987.42529	-142.81651	-215.93713	607.50751	-275.68466	-203.31497	501.91837	-240.04713	-161.70099	474.54153	-278.3833	-181.39981	93.403839	-174.0433	-134.59041	68.465317	-111.85226	-145.17874	49.533405	-372.22702	115.61525	683.97321	-269.79504	93.245651	502.75558	-249.11494	41.423965	477.8533	-294.80688	88.343094	104.40388	-188.74777	40.066612	63.354248	-119.3071	52.218987	47.377113	-382.98053	118.48536	40.338745	-336.80643	3.1223629	121.31244	-195.5555	-210.36818	43.701611	-323.33621	-101.62521	127.01588	-197.23575	87.576096	767.24078	-333.16336	43.654694	640.58557	-323.68335	-11.030495	490.98282	-239.80009	-207.75256	766.74054	-330.84875	-158.63802	631.97687	-322.47433	-107.59231	488.11893	-225.36174	-8.2208166	1285.2192	-83.377113	267.69687	1423.2573	-145.47958	134.47025	1458.4144	-159.54417	81.458122	1442.0972	-119.28716	76.553566	1446.8204	-225.27699	358.39792	1420.8722	-173.90527	344.89478	1425.5612	-491.86844	356.73306	1419.5763	-451.99612	298.89996	1421.9778	-503.45111	-210.11858	1457.1927	-229.15137	-216.20174	1452.3795	-135.32906	-300.79709	1464.9773	-153.80183	-412.79291	1438.8672	-148.08755	-495.16107	1433.4056	-173.49861	-536.44714	1413.4237	-493.07092	-491.8045	1415.0634	-502.92337
